<?xml version="1.0" standalone="no"?>
<!DOCTYPE svg PUBLIC "-//W3C//DTD SVG 20010904//EN"
 "http://www.w3.org/TR/2001/REC-SVG-20010904/DTD/svg10.dtd">
<svg version="1.0" xmlns="http://www.w3.org/2000/svg"
 width="428.000000pt" height="428.000000pt" viewBox="0 0 428.000000 428.000000"
 preserveAspectRatio="xMidYMid meet">
<metadata>
Created by potrace 1.14, written by Peter Selinger 2001-2017
</metadata>
<g transform="translate(0.000000,428.000000) scale(0.100000,-0.100000)"
fill="#000000" stroke="none">
<path d="M860 4260 c-175 -23 -242 -43 -366 -106 -237 -120 -395 -321 -470
-599 -18 -67 -19 -126 -19 -1425 l0 -1355 23 -85 c54 -201 171 -378 332 -502
64 -49 233 -138 263 -138 8 0 30 -6 49 -14 19 -8 61 -18 93 -23 71 -10 2650
-11 2715 -1 25 3 54 9 65 11 61 15 75 20 75 26 0 3 12 7 27 8 42 2 201 87 273
146 87 70 181 185 229 277 40 77 95 229 86 238 -2 2 0 12 5 22 5 9 12 50 16
91 3 41 8 77 10 80 5 8 4 2416 -1 2454 -2 17 -7 55 -10 85 -4 30 -9 58 -11 61
-2 3 -6 21 -9 39 -3 18 -15 60 -26 93 -94 279 -321 495 -605 578 -164 47 -200
48 -1484 47 -663 0 -1230 -4 -1260 -8z"/>
</g>
</svg>
